<svg width="148" height="51" viewBox="0 0 148 51" fill="none" xmlns="http://www.w3.org/2000/svg">
<path fill-rule="evenodd" clip-rule="evenodd" d="M10.5598 25.4609H0.10498V21.6982H16.3657L15.858 22.5257C14.7338 24.3481 12.7284 25.4609 10.5598 25.4609Z" fill="#7AC943"/>
<path fill-rule="evenodd" clip-rule="evenodd" d="M10.5598 35.479H0.10498V39.2416H16.3657L15.858 38.4142C14.7338 36.5917 12.7284 35.479 10.5598 35.479Z" fill="#7AC943"/>
<path fill-rule="evenodd" clip-rule="evenodd" d="M20.0319 45.1265L19.2305 47.3591C19.1289 47.6551 19.0419 47.9796 18.9404 48.2864H18.9077C18.8062 47.9761 18.7155 47.6551 18.614 47.3591L17.7872 45.1265H16.5288V50.1481H17.5623V48.3042C17.5623 47.8156 17.468 47.0845 17.4136 46.5994H17.4463L17.8524 47.7871L18.5741 49.7094H19.216L19.9376 47.7871L20.3546 46.5994H20.3837C20.3293 47.0845 20.235 47.8156 20.235 48.3042V50.1481H21.2866V45.1265H20.0283H20.0319Z" fill="#3FA9F4"/>
<path fill-rule="evenodd" clip-rule="evenodd" d="M26.034 48.0688V48.9497H28.4891V48.0688H26.034ZM27.9596 45.1265H26.578L24.9751 50.1481H26.1537L26.4692 48.9533L26.7013 48.0724L26.8246 47.6087C26.966 47.1059 27.1038 46.5174 27.2271 45.9895H27.2561C27.3903 46.5138 27.5281 47.1059 27.6695 47.6087L27.7928 48.0724L28.0249 48.9533L28.3404 50.1481H29.5625L27.9596 45.1265Z" fill="#3FA9F4"/>
<path fill-rule="evenodd" clip-rule="evenodd" d="M35.6113 47.1274L37.1562 45.123H35.8869L34.3638 47.1738H34.3348V45.123H33.1816V50.1446H34.3348V48.8001L34.9296 48.0226L36.1698 50.1446H37.4354L35.6077 47.1274H35.6113Z" fill="#3FA9F4"/>
<path fill-rule="evenodd" clip-rule="evenodd" d="M42.2801 49.1958V48.0367H44.0208V47.0845H42.2801V46.0787H44.3254V45.1265H41.127V50.1481H44.4052V49.1958H42.2838H42.2801Z" fill="#3FA9F4"/>
<path fill-rule="evenodd" clip-rule="evenodd" d="M57.8079 45.1265L57.4525 47.4732C57.3872 47.9903 57.3147 48.5253 57.2458 49.0603H57.2168C57.1153 48.5253 57.0101 47.9832 56.9086 47.4732L56.361 45.1265H55.3819L54.8343 47.4732C54.7291 47.9939 54.6276 48.5324 54.5296 49.0603H54.5006C54.4354 48.5324 54.3592 48.001 54.2939 47.4732L53.9386 45.1265H52.7563L53.7028 50.1481H55.128L55.6103 47.8655C55.6937 47.4803 55.7554 47.0773 55.817 46.6993H55.846C55.9004 47.0773 55.9693 47.4768 56.0527 47.8655L56.5532 50.1481H58.0037L58.9103 45.1265H57.8079Z" fill="#3FA9F4"/>
<path fill-rule="evenodd" clip-rule="evenodd" d="M64.8143 45.0337C63.4363 45.0337 62.4971 45.9752 62.4971 47.6158C62.4971 49.2564 63.4363 50.2407 64.8143 50.2407C66.1924 50.2407 67.1352 49.2564 67.1352 47.6158C67.1352 45.9752 66.1924 45.0337 64.8143 45.0337ZM64.8143 49.2564C64.1181 49.2564 63.6793 48.618 63.6793 47.6122C63.6793 46.6065 64.1181 46.0109 64.8143 46.0109C65.5106 46.0109 65.9494 46.6065 65.9494 47.6122C65.9494 48.618 65.5106 49.2564 64.8143 49.2564Z" fill="#3FA9F4"/>
<path fill-rule="evenodd" clip-rule="evenodd" d="M74.127 48.1401L73.6519 47.3163L72.8541 48.0438L73.0137 48.3434L73.9892 50.1516H75.2802L74.1233 48.1437L74.127 48.1401ZM73.0681 45.1265H71.2295V50.1481H72.3827V48.3399H73.0681C73.4561 48.3399 73.8224 48.2757 74.127 48.1401C74.6746 47.8976 75.0372 47.4304 75.0372 46.6921C75.0372 45.4974 74.1487 45.1265 73.0681 45.1265ZM72.3827 46.0288H72.9738C73.5794 46.0288 73.9058 46.1964 73.9058 46.6921C73.9058 47.1879 73.5794 47.4411 72.9738 47.4411H72.3827V46.0288Z" fill="#3FA9F4"/>
<path fill-rule="evenodd" clip-rule="evenodd" d="M81.5903 47.1274L83.1352 45.123H81.8659L80.3428 47.1738H80.3138V45.123H79.1606V50.1446H80.3138V48.8001L80.9086 48.0226L82.1488 50.1446H83.4144L81.5867 47.1274H81.5903Z" fill="#3FA9F4"/>
<path fill-rule="evenodd" clip-rule="evenodd" d="M92.9589 49.1958V48.0367H94.6995V47.0845H92.9589V46.0787H95.0041V45.1265H91.8057V50.1481H95.0839V49.1958H92.9625H92.9589Z" fill="#3FA9F4"/>
<path fill-rule="evenodd" clip-rule="evenodd" d="M99.6315 48.0688V48.9497H102.087V48.0688H99.6315ZM101.557 45.1265H100.179L98.5762 50.1481H99.7547L100.07 48.9533L100.302 48.0724L100.426 47.6087C100.567 47.1059 100.705 46.5174 100.828 45.9895H100.857C100.995 46.5138 101.129 47.1059 101.271 47.6087L101.394 48.0724L101.626 48.9533L101.941 50.1481H103.164L101.561 45.1265H101.557Z" fill="#3FA9F4"/>
<path fill-rule="evenodd" clip-rule="evenodd" d="M109.317 47.3165L108.665 47.0562C108.219 46.8814 107.885 46.7709 107.885 46.4606C107.885 46.1717 108.139 46.0112 108.538 46.0112C108.937 46.0112 109.259 46.1503 109.597 46.4035L110.18 45.6867C109.742 45.2551 109.129 45.0269 108.538 45.0269C107.475 45.0269 106.721 45.6938 106.721 46.5248C106.721 47.2559 107.221 47.6803 107.751 47.8943L108.414 48.1725C108.86 48.3544 109.151 48.4542 109.151 48.7716C109.151 49.0712 108.915 49.2567 108.433 49.2567C108.012 49.2567 107.54 49.0463 107.178 48.7324L106.514 49.5099C107.036 49.9878 107.74 50.2339 108.407 50.2339C109.626 50.2339 110.329 49.5135 110.329 48.6789C110.329 47.9692 109.941 47.5626 109.317 47.313V47.3165Z" fill="#3FA9F4"/>
<path d="M115.482 45.1265H114.329V50.1481H115.482V45.1265Z" fill="#3FA9F4"/>
<path fill-rule="evenodd" clip-rule="evenodd" d="M120.976 49.1958V48.0367H122.717V47.0845H120.976V46.0787H123.021V45.1265H119.823V50.1481H123.101V49.1958H120.98H120.976Z" fill="#3FA9F4"/>
<path fill-rule="evenodd" clip-rule="evenodd" d="M130.144 48.1401L129.669 47.3163L128.871 48.0438L129.03 48.3434L130.006 50.1516H131.297L130.144 48.1437V48.1401ZM129.085 45.1265H127.246V50.1481H128.399V48.3399H129.085C129.476 48.3399 129.839 48.2757 130.147 48.1401C130.691 47.8976 131.057 47.4304 131.057 46.6921C131.057 45.4974 130.169 45.1265 129.088 45.1265H129.085ZM128.399 46.0288H128.99C129.596 46.0288 129.922 46.1964 129.922 46.6921C129.922 47.1879 129.596 47.4411 128.99 47.4411H128.399V46.0288Z" fill="#3FA9F4"/>
<path fill-rule="evenodd" clip-rule="evenodd" d="M129.411 36.3423C128.131 36.3423 127.391 37.0556 127.391 38.097C127.391 39.1384 128.127 39.8517 129.411 39.8517C130.695 39.8517 131.464 39.1384 131.464 38.097C131.464 37.0556 130.691 36.3423 129.411 36.3423ZM129.411 38.9565C128.624 38.9565 128.156 38.6248 128.156 38.097C128.156 37.5691 128.62 37.2375 129.411 37.2375C130.202 37.2375 130.698 37.5691 130.698 38.097C130.698 38.6248 130.198 38.9565 129.411 38.9565Z" fill="#3FA9F4"/>
<path fill-rule="evenodd" clip-rule="evenodd" d="M129.865 34.7376V33.4001H129.118V34.7376H128.207V33.1719H127.46V35.6113H131.391V34.7376H129.865Z" fill="#3FA9F4"/>
<path fill-rule="evenodd" clip-rule="evenodd" d="M129.865 31.6272V30.2898H129.118V31.6272H128.207V30.0615H127.46V32.501H131.391V31.6272H129.865Z" fill="#3FA9F4"/>
<path d="M131.391 28.521H127.46V29.3948H131.391V28.521Z" fill="#3FA9F4"/>
<path fill-rule="evenodd" clip-rule="evenodd" d="M130.887 24.7441L130.328 25.2042C130.539 25.3932 130.698 25.6429 130.698 25.9603C130.698 26.5274 130.227 26.8947 129.422 26.8947C128.617 26.8947 128.16 26.4774 128.16 25.946C128.16 25.6643 128.29 25.4574 128.472 25.2648L127.902 24.8048C127.63 25.0651 127.391 25.4681 127.391 25.9674C127.391 26.9447 128.145 27.7935 129.451 27.7935C130.756 27.7935 131.464 26.9768 131.464 25.996C131.464 25.4967 131.264 25.0687 130.887 24.7477V24.7441Z" fill="#3FA9F4"/>
<path fill-rule="evenodd" clip-rule="evenodd" d="M130.644 21.6769V23.2818H129.741V21.9658H128.994V23.2818H128.207V21.734H127.46V24.1556H131.391V21.6733H130.644V21.6769Z" fill="#3FA9F4"/>
<path fill-rule="evenodd" clip-rule="evenodd" d="M83.1094 26.4273C83.1094 26.9088 83.1348 27.3831 83.1819 27.8503C83.8745 21.3558 89.4555 16.2985 96.2441 16.2985C96.5052 16.2985 96.7627 16.3057 97.0166 16.3199C98.264 16.3913 99.4607 16.6302 100.589 17.0225C101.234 15.8028 102.039 14.6794 102.982 13.6772C105.847 10.6172 109.959 8.70197 114.525 8.70197C119.09 8.70197 123.536 10.7777 126.416 14.0588C127.351 15.1216 128.142 16.3164 128.755 17.6039C129.98 17.1688 131.3 16.9334 132.678 16.9334C133.045 16.9334 133.407 16.9512 133.766 16.9833C139.656 17.5218 144.268 22.3936 144.268 28.3282C144.268 34.6231 139.079 39.7231 132.682 39.7231C132.305 39.7231 131.931 39.7053 131.565 39.6696C132.305 39.7873 133.063 39.8479 133.839 39.8479C141.661 39.8479 148 33.6137 148 25.9209C148 18.228 141.661 11.9938 133.839 11.9938C133.128 11.9938 132.428 12.0438 131.746 12.1472C128.439 6.60132 122.311 2.87793 115.301 2.87793C108.291 2.87793 101.858 6.78678 98.6158 12.5609C98.177 12.5217 97.731 12.5003 97.2777 12.5003C89.4556 12.5003 83.1166 18.7344 83.1166 26.4273H83.1094Z" fill="#3FA9F4"/>
<path fill-rule="evenodd" clip-rule="evenodd" d="M136.087 9.77228L132.193 11.1882L130.753 7.35778L134.648 5.94189L136.087 9.77228Z" fill="#7AC943"/>
<path fill-rule="evenodd" clip-rule="evenodd" d="M143.166 7.82852L140.617 10.3357L138.067 7.82852L140.617 5.32129L143.166 7.82852Z" fill="#7AC943"/>
<path fill-rule="evenodd" clip-rule="evenodd" d="M138.234 1.56211L136.645 3.12423L135.057 1.56211L136.645 0L138.234 1.56211Z" fill="#7AC943"/>
<path fill-rule="evenodd" clip-rule="evenodd" d="M138.832 5.54209L137.244 7.10421L135.656 5.54209L137.244 3.97998L138.832 5.54209Z" fill="#3FA9F4"/>
<path fill-rule="evenodd" clip-rule="evenodd" d="M143.33 1.56211L141.741 3.12423L140.153 1.56211L141.741 0L143.33 1.56211Z" fill="#3FA9F4"/>
<path fill-rule="evenodd" clip-rule="evenodd" d="M130.872 4.48323L129.175 2.81413L130.872 1.14502L132.57 2.81413L130.872 4.48323Z" fill="#3FA9F4"/>
<path d="M131.449 42.0059H0.043457V42.5515H131.449V42.0059Z" fill="#7AC943"/>
<path fill-rule="evenodd" clip-rule="evenodd" d="M27.9704 21.6772L19.0132 39.2992H22.5961L27.9704 28.7282L33.341 39.2992H36.9275L27.9704 21.6772Z" fill="#7AC943"/>
<path fill-rule="evenodd" clip-rule="evenodd" d="M58.4282 26.9663V25.2081C58.4282 24.2344 58.0765 23.4034 57.3729 22.7151C56.6767 22.0232 55.8317 21.6772 54.8417 21.6772H44.0931C43.1067 21.6772 42.2618 22.0232 41.5619 22.7151C40.862 23.3999 40.5103 24.2308 40.5103 25.2081V28.7317C40.5103 29.7018 40.862 30.5328 41.5619 31.2211C42.2582 31.9094 43.1031 32.2554 44.0931 32.2554H54.8417V35.7791H44.0931V34.0208H40.5103V35.7791C40.5103 36.7491 40.862 37.5801 41.5619 38.2685C42.2582 38.9568 43.1031 39.2992 44.0931 39.2992H54.8417C55.8281 39.2992 56.6731 38.9568 57.3729 38.2685C58.0765 37.5837 58.4282 36.7527 58.4282 35.7791V32.2554C58.4282 31.2817 58.0765 30.4508 57.3729 29.7624C56.6767 29.0741 55.8317 28.7317 54.8417 28.7317H44.0931V25.2081H54.8417V26.9663H58.4282Z" fill="#7AC943"/>
<path fill-rule="evenodd" clip-rule="evenodd" d="M75.4504 21.6772L70.9718 27.5548L66.4932 21.6772H62.0146L69.1804 31.0785V39.2992H72.7633V31.0785L79.9326 21.6772H75.454H75.4504Z" fill="#7AC943"/>
<path fill-rule="evenodd" clip-rule="evenodd" d="M102.406 21.6772L96.1393 27.8472L94.3442 26.0997V26.0818L89.8657 21.6772H87.1821V39.2992H90.765V27.8472L96.1393 33.1327L101.51 27.8472V39.2992H105.096V21.6772H102.406Z" fill="#7AC943"/>
<path fill-rule="evenodd" clip-rule="evenodd" d="M122.118 21.6772L117.64 27.5548L113.161 21.6772H108.683L115.848 31.0785V39.2992H119.431V31.0785L126.601 21.6772H122.122H122.118Z" fill="#7AC943"/>
<path fill-rule="evenodd" clip-rule="evenodd" d="M6.13578 11.2342C5.89644 11.1665 5.66073 11.2627 5.4504 11.4375C4.81941 11.9618 4.78314 12.8177 4.5438 13.5382C4.36248 14.0767 4.0905 14.5938 3.66984 14.9861C3.43413 15.2073 3.14402 15.4997 3.20567 15.8492C3.20929 15.8778 3.24193 15.892 3.26731 15.8849C3.32171 15.9348 3.39786 15.9634 3.46677 15.9812C3.58644 16.0097 3.71336 16.024 3.84028 16.0275C4.33347 16.0454 4.82303 15.8706 5.2038 15.5425C5.37787 15.3927 5.52655 15.2073 5.6426 15.0075C5.77315 14.7793 5.8493 14.5296 5.90732 14.2728C6.0415 13.7129 6.14666 13.1423 6.27359 12.5823C6.35337 12.2257 6.44403 11.8726 6.55644 11.5267C6.56732 11.4946 6.3715 11.3519 6.34249 11.3305C6.27359 11.2806 6.20469 11.2485 6.13578 11.2306V11.2342Z" fill="#161E36"/>
<path fill-rule="evenodd" clip-rule="evenodd" d="M8.74668 21.47L8.95701 20.4357L6.91898 20.3145L5.32337 20.8744C5.31612 20.8387 5.33062 20.7674 5.29073 20.7888C5.22908 20.8245 5.16018 20.8566 5.09491 20.8815C4.9426 20.9457 4.77941 20.9849 4.6126 21.0063C4.60535 21.0063 4.60172 21.0063 4.59447 21.0099C4.52919 20.9992 4.17381 21.1989 4.24271 21.2061C5.3415 21.3487 6.51645 21.4272 8.3514 21.6447C8.43843 21.6554 8.52909 21.6447 8.61975 21.6483C8.64151 21.6483 8.6669 21.634 8.67052 21.6126C8.68865 21.5164 8.67777 21.4914 8.6814 21.4557L8.74668 21.4664V21.47Z" fill="#809BCF"/>
<path fill-rule="evenodd" clip-rule="evenodd" d="M9.69332 16.9905C9.67519 16.937 9.62805 16.8942 9.58816 16.855C9.53376 16.8051 9.48299 16.7587 9.4286 16.7088C9.22189 16.5269 9.01156 16.3486 8.77585 16.2023C8.53288 16.0526 8.26453 15.9456 7.9853 15.8707C7.69881 15.7922 7.40145 15.7458 7.10408 15.6995C6.79222 15.6495 6.47672 15.6067 6.16122 15.5711C5.67529 15.5176 5.18935 15.4819 4.69979 15.4926C4.11957 15.5033 3.13319 15.6317 2.68352 16.0312C2.49495 16.1988 2.28825 16.4128 2.16132 16.6303C1.95462 16.987 1.85308 17.4328 1.71528 17.818C1.5666 18.2281 1.42517 18.6418 1.27286 19.0484C1.13143 19.4229 0.964616 19.7938 0.899341 20.1932C0.85945 20.4393 0.877582 20.6961 1.00088 20.9244C1.0589 21.0313 1.14231 21.149 1.27286 21.174C2.21209 21.3595 3.18396 21.2025 4.11594 21.2275C4.15583 21.2275 4.1921 21.2061 4.18122 21.1669C4.07968 20.7211 4.10506 20.4036 4.25375 19.9721C4.81584 20.1433 5.40694 20.2182 5.99441 20.1968C6.19749 20.1897 6.39331 20.1683 6.59276 20.1397C6.63628 20.2788 6.6798 20.4215 6.72331 20.5606C6.74145 20.6248 6.84661 20.5998 6.82848 20.532C6.78859 20.3965 6.74507 20.2574 6.70156 20.1219C6.77046 20.1112 6.83573 20.1005 6.90463 20.0862C7.21288 20.0292 7.532 19.9685 7.84749 20.0113C8.14486 20.0506 8.42771 20.1683 8.70695 20.2646C8.83024 20.3074 8.96079 20.3573 9.08772 20.286C9.17838 20.236 9.22552 20.1362 9.2509 20.047C9.29079 19.9222 9.29805 19.7902 9.31618 19.6654L9.38508 19.2124C9.43222 18.9129 9.47574 18.6097 9.52288 18.3101C9.57003 18.0105 9.61354 17.7074 9.66069 17.4078L9.69332 17.1903C9.7042 17.1225 9.71871 17.0583 9.69332 16.9905Z" fill="#809BCF"/>
<path fill-rule="evenodd" clip-rule="evenodd" d="M8.01807 19.0056C8.06159 18.7167 8.08334 18.4207 8.07972 18.1247C8.07609 17.8536 8.04345 17.5861 8.01444 17.3151C7.95642 16.8372 7.88752 16.3414 7.95279 15.86C7.67356 15.7886 7.38708 15.7423 7.10422 15.6995C6.79235 15.6495 6.47686 15.6067 6.16136 15.5711C5.67542 15.5176 5.18949 15.4819 4.69993 15.4926C4.61652 15.4926 4.53311 15.4998 4.44971 15.5105C4.47147 15.5319 4.49685 15.5568 4.51861 15.5782C5.20762 16.2701 5.69356 17.1332 6.06707 18.0212C6.34993 18.6989 6.56752 19.4015 6.7307 20.1148C6.78872 20.1041 6.84675 20.0934 6.90477 20.0827C7.19851 20.0292 7.4995 19.9721 7.80049 20.0006C7.89115 19.6725 7.97093 19.3408 8.0217 19.0056H8.01807Z" fill="#2F2F33"/>
<path fill-rule="evenodd" clip-rule="evenodd" d="M7.405 15.2468C7.405 15.2468 7.38686 15.2147 7.36873 15.2111C6.69422 15.0577 6.14664 14.5299 5.54466 14.2339C5.49389 14.5763 5.45037 15.0542 5.24004 15.3181C5.13851 15.4465 5.08411 15.5285 4.7251 15.4893C4.80488 15.7532 4.92818 16.0457 5.08411 16.2739C5.16026 16.388 5.2473 16.495 5.34521 16.5913C5.44675 16.6912 5.56279 16.7625 5.69697 16.8124C6.19378 17.0086 6.84653 17.0692 7.26719 16.6769C7.66972 16.2989 7.53555 15.7068 7.405 15.2432V15.2468Z" fill="#F3B59F"/>
<path fill-rule="evenodd" clip-rule="evenodd" d="M7.40482 15.2468C7.40482 15.2468 7.38668 15.2147 7.36855 15.2111C6.69405 15.0577 6.14646 14.5299 5.54448 14.2339C5.5191 14.4051 5.49371 14.6119 5.4502 14.8081C5.50459 14.9293 5.56261 15.047 5.63514 15.1576C5.71855 15.286 5.81646 15.4215 5.94701 15.5107C6.18998 15.6819 6.49459 15.7104 6.7847 15.7104C6.80646 15.7104 6.81734 15.7282 6.82097 15.7461C6.85361 16.0421 6.79558 16.6876 6.49822 16.9729C6.7847 16.9658 7.06031 16.8838 7.27427 16.684C7.6768 16.306 7.54262 15.714 7.41207 15.2503L7.40482 15.2468Z" fill="#E38076"/>
<path fill-rule="evenodd" clip-rule="evenodd" d="M6.92269 19.651C6.84653 19.355 6.73412 19.0697 6.62532 18.7843C6.42225 18.2636 6.20104 17.7501 5.94356 17.2543C5.77675 16.9333 5.5918 16.6231 5.3851 16.327C5.28356 16.1808 5.17477 16.0382 5.06235 15.8991C5.0007 15.8242 4.7396 15.4854 4.74323 15.4854C4.41323 15.4854 4.12674 15.5175 3.83301 15.5709C4.00345 16.3556 4.27905 17.2508 4.7396 17.9319C4.76862 17.9747 5.41774 17.882 5.43224 17.8678C5.35246 17.9533 5.27268 18.0389 5.19653 18.1245C5.14576 18.1816 4.95356 18.4134 4.98982 18.4562C5.40323 18.9306 5.84565 19.4299 6.3062 19.8614C6.46576 20.0754 6.63983 20.2858 6.82115 20.482C6.83928 20.4998 6.86104 20.5034 6.87917 20.4927C6.90456 20.5248 6.92631 20.5569 6.9517 20.589C6.98071 20.6282 7.05324 20.6175 7.05324 20.5604C7.04961 20.2537 7.00609 19.947 6.92994 19.6474L6.92269 19.651Z" fill="#526DB3"/>
<path fill-rule="evenodd" clip-rule="evenodd" d="M8.73233 16.7269C8.72507 16.4309 8.68881 16.1313 8.60903 15.846C8.58002 15.739 8.54738 15.5856 8.3987 15.6106C8.27903 15.632 8.22826 15.7889 8.19562 15.8852C7.98529 16.4808 7.88013 17.1085 7.77859 17.7327C7.77859 17.7541 7.78221 17.7683 7.79309 17.7826C7.84749 18.5458 7.82573 19.3126 7.73145 20.0687C7.73145 20.0865 7.74232 20.1079 7.75683 20.1151C7.91639 20.2007 7.99617 19.9831 8.03606 19.8725C8.10134 19.6942 8.16299 19.5123 8.22101 19.3304C8.33705 18.9667 8.43496 18.5957 8.51474 18.2213C8.522 18.1927 8.50749 18.1642 8.47848 18.1571C8.34068 18.1178 8.21738 18.0501 8.11222 17.9573C8.23551 17.9324 8.35881 17.9074 8.48211 17.8825C8.54376 17.8682 8.60903 17.8646 8.65617 17.8218C8.70694 17.779 8.69969 17.6934 8.70332 17.6364C8.72145 17.3368 8.73595 17.0336 8.72507 16.7341L8.73233 16.7269Z" fill="#526DB3"/>
<path fill-rule="evenodd" clip-rule="evenodd" d="M8.45668 20.2969C8.35877 20.2363 8.24273 20.2006 8.13031 20.1792C7.89822 20.14 7.65525 20.1792 7.4558 20.3005C7.28173 20.4039 7.15844 20.5715 7.0025 20.6928C6.97712 20.7106 6.98075 20.7356 6.99525 20.757C6.98437 20.7855 6.99525 20.8176 7.03151 20.8212C7.3325 20.8711 7.64075 20.9246 7.94536 20.8818C8.07591 20.864 8.19921 20.8283 8.31888 20.7748C8.37328 20.7498 8.42767 20.7177 8.47844 20.6821C8.52921 20.6464 8.59086 20.6036 8.6235 20.5501C8.69965 20.4324 8.55097 20.3468 8.46394 20.2933L8.45668 20.2969Z" fill="#E38076"/>
<path fill-rule="evenodd" clip-rule="evenodd" d="M9.12017 16.5057C9.10204 16.2775 9.04402 16.0563 8.95698 15.8424C8.86632 15.6212 8.75028 15.4108 8.67775 15.1826C8.58709 14.9008 8.57621 14.6191 8.58709 14.3266C8.60522 13.8451 8.61973 13.3565 8.54358 12.8786C8.4783 12.4435 8.355 11.9977 8.09028 11.6339C7.84368 11.2987 7.43028 11.0954 7.02049 11.0348C6.69775 10.9884 6.11752 11.0419 5.98335 11.395C5.9761 11.4128 5.97247 11.4306 5.96884 11.4485C5.95796 11.5091 6.10302 11.5947 6.13928 11.6268C6.21906 11.6981 6.30247 11.7659 6.38225 11.8372C6.64335 12.0619 6.91896 12.2723 7.20544 12.4685C7.3505 12.5648 7.49918 12.6539 7.64786 12.7502C7.77116 12.8323 7.90896 12.9107 8.00324 13.0248C8.06127 13.4778 8.0105 13.9414 7.86182 14.3694C7.78566 14.5941 7.67687 14.8116 7.54269 15.0114C7.47017 15.1219 7.37588 15.2361 7.25984 15.3074C7.25258 15.3181 7.2417 15.3252 7.2272 15.3324C7.1583 15.3645 7.08577 15.3894 7.00962 15.3965C7.00962 15.3965 7.00962 15.3965 7.00599 15.3965C6.96973 15.393 6.93346 15.4179 6.94797 15.4607C7.20181 16.0956 6.88994 17.0193 6.4439 17.5186C6.39313 17.5757 6.33873 17.6292 6.3206 17.7041C6.27709 17.8966 6.61071 17.9965 6.75214 18.05C6.81742 18.075 6.90445 18.0999 6.96247 18.1499C7.01324 18.1927 7.02775 18.1499 7.03137 18.2248C7.03137 18.3068 6.94071 18.3532 6.88994 18.3924C6.7739 18.4851 6.82467 18.5814 6.9661 18.5992C8.09753 18.7526 9.06215 17.8503 9.1238 16.7554C9.12742 16.6698 9.1238 16.5842 9.1238 16.4986L9.12017 16.5057Z" fill="#161E36"/>
<path fill-rule="evenodd" clip-rule="evenodd" d="M8.74305 19.9294C8.66327 19.8331 8.57261 19.7404 8.4602 19.6869C8.33327 19.6227 8.03591 19.6798 7.90173 19.7119C7.75668 19.7475 7.61888 19.8117 7.47382 19.8545C7.33239 19.8973 7.19096 19.933 7.04591 19.9615C6.7558 20.0222 6.45843 20.0507 6.16107 20.0614C5.55909 20.0864 4.95711 20.0364 4.35876 19.9865C4.28623 19.9794 4.2137 19.9758 4.14117 19.9687C4.06502 19.9615 3.98886 19.9508 3.91271 19.9544C3.76765 19.9615 3.72051 20.1149 3.68062 20.2326C3.59359 20.4965 3.59721 20.7854 3.68062 21.0493C3.68787 21.0671 3.6915 21.0885 3.69875 21.1064C3.66974 21.1385 3.68425 21.1991 3.73502 21.1955C4.37326 21.1492 5.0115 21.0743 5.6425 20.978C5.80206 20.953 5.95799 20.928 6.11755 20.8995C6.27349 20.871 6.43305 20.8317 6.59261 20.8317C6.74129 20.8317 6.88635 20.8852 7.03865 20.871C7.14744 20.8603 7.24536 20.8139 7.33602 20.7568C7.55723 20.6213 7.75305 20.4038 8.03591 20.4323C8.17734 20.4466 8.31151 20.525 8.43481 20.5892C8.56899 20.657 8.70679 20.7212 8.8591 20.739C8.88811 20.7426 8.91349 20.7105 8.91349 20.6855C8.92437 20.4145 8.89899 20.1292 8.7358 19.9259L8.74305 19.9294Z" fill="#F3B59F"/>
<path fill-rule="evenodd" clip-rule="evenodd" d="M7.98535 12.661C7.93821 12.4434 7.87293 12.2295 7.74601 12.044C7.61183 11.8443 7.40513 11.7088 7.16579 11.6481C6.6871 11.5304 6.18304 11.7088 5.84216 12.0404C5.59919 12.2794 5.45051 12.5968 5.39611 12.9249C5.39611 12.9356 5.39611 12.9463 5.39974 12.9534C5.39611 12.9962 5.39249 13.0355 5.38886 13.0783C5.37798 13.0783 5.37073 13.0783 5.35985 13.0747C5.24018 13.0319 5.08424 13.0569 4.97908 13.1139C4.85941 13.1853 4.78688 13.3315 4.80501 13.467C4.82314 13.6097 4.92468 13.7238 5.05523 13.7737C5.13501 13.8058 5.2293 13.7987 5.30908 13.7702C5.33809 14.0341 5.32721 14.2873 5.41424 14.5441C5.53754 14.9114 5.78414 15.2467 6.14677 15.4143C6.65084 15.6461 7.27821 15.4642 7.64447 15.0684C8.07601 14.6047 8.13041 13.8914 8.07964 13.2923C8.0615 13.0783 8.02887 12.8679 7.98172 12.661H7.98535Z" fill="#F3B59F"/>
<path fill-rule="evenodd" clip-rule="evenodd" d="M9.78388 16.5161C9.57355 17.2758 8.71772 20.3608 8.43487 21.3879C8.39498 21.5341 8.50739 21.6732 8.6597 21.6732C9.83828 21.6554 14.0993 21.5948 15.0022 21.5056C15.0929 21.4985 15.1691 21.4343 15.1981 21.3487C15.4048 20.7031 16.3005 17.907 16.6559 16.7693C16.6994 16.6267 16.5942 16.4804 16.4419 16.4769L10.0087 16.3521C9.90355 16.3521 9.80927 16.4198 9.78388 16.5197V16.5161Z" fill="#D7D9D9"/>
<path fill-rule="evenodd" clip-rule="evenodd" d="M6.23746 11.7049C6.21933 11.6871 6.19395 11.6764 6.16131 11.6942C5.67537 11.9831 5.30186 12.3933 5.08427 12.8712C5.06251 12.9175 5.02262 12.9853 5.04438 13.0352C5.06977 13.0994 5.13504 13.1137 5.20394 13.1244C5.44329 13.1636 5.64274 12.8997 5.76966 12.7499C6.01263 12.461 6.16856 12.1079 6.29911 11.7691C6.31362 11.7299 6.27735 11.7014 6.23746 11.7049Z" fill="#161E36"/>
<path fill-rule="evenodd" clip-rule="evenodd" d="M8.25013 13.2529C8.17035 12.9783 8.08694 12.7072 7.98903 12.4398C7.902 12.2044 7.79321 11.9797 7.59376 11.8192C7.19848 11.4946 6.63639 11.4911 6.20122 11.7372C6.18672 11.7086 6.17221 11.6765 6.16133 11.648C6.13595 11.5874 6.03078 11.6123 6.05617 11.6765C6.41881 12.5361 7.24562 13.1816 8.18123 13.3171C8.22112 13.3242 8.26101 13.2957 8.2465 13.2529H8.25013Z" fill="#161E36"/>
<path fill-rule="evenodd" clip-rule="evenodd" d="M7.11507 14.2088C7.11145 14.1018 7.10782 13.9948 7.10419 13.8878C7.10419 13.8557 7.05342 13.8557 7.05342 13.8878C7.05705 14.0376 7.06793 14.1874 7.06793 14.3337C7.06793 14.4228 6.97364 14.4264 6.90474 14.4228C6.83221 14.4228 6.75606 14.3978 6.70166 14.3479C6.67991 14.3265 6.64364 14.3622 6.6654 14.3836C6.7198 14.4335 6.78507 14.4585 6.8576 14.4692C6.92287 14.4763 7.00991 14.4834 7.06793 14.4406C7.13683 14.3871 7.11507 14.2837 7.11507 14.2088Z" fill="#A43F22"/>
<path fill-rule="evenodd" clip-rule="evenodd" d="M6.42967 13.6096C6.42967 13.6096 6.42242 13.5846 6.41879 13.5739C6.3789 13.4883 6.27374 13.4705 6.20846 13.5347C6.1722 13.5703 6.15769 13.6345 6.16857 13.6845C6.18308 13.7487 6.2411 13.8093 6.31363 13.7986C6.40066 13.7879 6.4478 13.688 6.4333 13.606L6.42967 13.6096Z" fill="#2D303A"/>
<path fill-rule="evenodd" clip-rule="evenodd" d="M7.80752 13.8915C7.80752 13.8915 7.80752 13.8665 7.80027 13.8558C7.77126 13.7666 7.67335 13.7381 7.59719 13.7916C7.55368 13.8201 7.53192 13.8843 7.53555 13.9343C7.53917 14.002 7.59357 14.0662 7.66247 14.0662C7.75313 14.0662 7.81115 13.9735 7.80752 13.8915Z" fill="#2D303A"/>
<path fill-rule="evenodd" clip-rule="evenodd" d="M6.93371 14.872C6.82854 14.9433 6.70162 14.9683 6.57832 14.9326C6.52392 14.9183 6.46953 14.8862 6.42601 14.8506C6.40063 14.8292 6.38249 14.8078 6.36436 14.7792C6.35711 14.7685 6.34986 14.7543 6.3426 14.7436C6.3426 14.74 6.33898 14.7364 6.33535 14.7293C6.3426 14.7115 6.32085 14.6901 6.29909 14.6972C6.24832 14.7186 6.31722 14.7971 6.33535 14.8185C6.38249 14.8755 6.44052 14.9219 6.50942 14.954C6.65447 15.0218 6.83217 15.0004 6.95909 14.9112C6.98447 14.8934 6.95909 14.8506 6.93371 14.8684V14.872Z" fill="#A43F22"/>
<path fill-rule="evenodd" clip-rule="evenodd" d="M6.58567 13.1711C6.45875 13.0641 6.27018 13.0498 6.136 13.1425C6.11062 13.1604 6.136 13.2032 6.16139 13.1853C6.28106 13.1033 6.44425 13.1104 6.55304 13.2032C6.5748 13.2246 6.61106 13.1889 6.5893 13.1675L6.58567 13.1711Z" fill="#A43F22"/>
<path fill-rule="evenodd" clip-rule="evenodd" d="M7.88031 13.4634C7.80053 13.3992 7.69537 13.3814 7.59746 13.417C7.57207 13.4277 7.58295 13.467 7.60833 13.4598C7.69174 13.4277 7.77877 13.442 7.84768 13.4955C7.86943 13.5133 7.90207 13.4812 7.87669 13.467L7.88031 13.4634Z" fill="#A43F22"/>
<path fill-rule="evenodd" clip-rule="evenodd" d="M5.10241 13.2884C5.06614 13.2777 5.05164 13.3348 5.0879 13.3455C5.19669 13.374 5.19307 13.506 5.18581 13.5952C5.18581 13.6308 5.24021 13.6308 5.24383 13.5952C5.25471 13.4775 5.24383 13.3277 5.10241 13.2884Z" fill="#E7744D"/>
<path fill-rule="evenodd" clip-rule="evenodd" d="M5.19671 13.3708C5.13144 13.3637 5.06979 13.3887 5.02627 13.435C5.00089 13.4636 5.04441 13.5028 5.06616 13.4743C5.0988 13.4386 5.14232 13.4208 5.19309 13.4279C5.22935 13.4315 5.22935 13.3744 5.19309 13.3708H5.19671Z" fill="#E7744D"/>
<path fill-rule="evenodd" clip-rule="evenodd" d="M6.28454 14.1874C6.26279 14.1874 6.24103 14.1874 6.21927 14.1874C5.82762 14.1517 5.53751 13.7951 5.5774 13.3956C5.59553 13.2137 5.67894 13.0461 5.80949 12.9249C5.94366 12.8036 6.1141 12.7358 6.2918 12.7358C6.31356 12.7358 6.33531 12.7358 6.35707 12.7358C6.54927 12.7537 6.71971 12.8464 6.83938 12.9962C6.95905 13.146 7.01707 13.335 6.99894 13.5276C6.98081 13.7095 6.8974 13.8771 6.76323 13.9984C6.62905 14.1196 6.45861 14.1874 6.28092 14.1874H6.28454ZM6.2918 12.7893C5.95092 12.7893 5.66806 13.0497 5.63542 13.3992C5.59916 13.7665 5.86388 14.0911 6.2229 14.1268C6.24465 14.1268 6.26279 14.1268 6.28454 14.1268C6.62542 14.1268 6.90828 13.8664 6.94092 13.5169C6.95905 13.3386 6.90466 13.1638 6.79586 13.0283C6.68345 12.8892 6.52751 12.8072 6.35345 12.7893C6.33169 12.7893 6.31356 12.7893 6.2918 12.7893Z" fill="white"/>
<path fill-rule="evenodd" clip-rule="evenodd" d="M7.81486 14.5154C7.7931 14.5154 7.77497 14.5154 7.75321 14.5154C7.38332 14.4798 7.11497 14.141 7.15123 13.7593C7.16936 13.5846 7.24552 13.4241 7.37244 13.3064C7.49574 13.1887 7.65893 13.1245 7.82574 13.1245C7.8475 13.1245 7.86563 13.1245 7.88739 13.1245C8.25728 13.1602 8.52563 13.499 8.48937 13.8806C8.47124 14.0554 8.39508 14.2159 8.26816 14.3335C8.14486 14.4512 7.98167 14.5154 7.81486 14.5154ZM7.82574 13.1816C7.50662 13.1816 7.24189 13.4312 7.20925 13.7629C7.17662 14.1124 7.42321 14.4227 7.76046 14.4548C7.7786 14.4548 7.79673 14.4548 7.81486 14.4548C8.13398 14.4548 8.39871 14.2052 8.43135 13.8735C8.46398 13.524 8.21739 13.2137 7.88013 13.1816C7.862 13.1816 7.84387 13.1816 7.82574 13.1816Z" fill="white"/>
<path fill-rule="evenodd" clip-rule="evenodd" d="M5.62487 13.2958C5.43993 13.2138 5.25136 13.1318 5.06641 13.0533C5.03377 13.0391 5.00113 13.089 5.0374 13.1032C5.22234 13.1853 5.40729 13.2673 5.59586 13.3458C5.6285 13.36 5.66114 13.3101 5.62487 13.2958Z" fill="white"/>
<path fill-rule="evenodd" clip-rule="evenodd" d="M7.2198 13.6346C7.19442 13.599 7.15816 13.574 7.11464 13.5633C7.09288 13.5562 7.07112 13.5562 7.04936 13.5562C7.03849 13.5562 7.02761 13.5562 7.02035 13.5597C7.02035 13.5597 7.00585 13.5633 6.99859 13.5669C6.98772 13.5633 6.97321 13.5669 6.96596 13.5704C6.95508 13.5811 6.95508 13.5883 6.95508 13.6025C6.95508 13.6132 6.96596 13.6203 6.97321 13.6239C7.00585 13.631 7.03848 13.6096 7.07112 13.6096C7.11464 13.6096 7.15453 13.6382 7.17629 13.6703C7.19805 13.6988 7.24156 13.6596 7.2198 13.631V13.6346Z" fill="white"/>
<path fill-rule="evenodd" clip-rule="evenodd" d="M1.17829 19.284C1.06225 19.58 0.94983 19.876 0.895434 20.1899C0.855544 20.436 0.873676 20.6927 0.996973 20.921C1.055 21.028 1.1384 21.1457 1.26895 21.1706C2.20819 21.3561 4.48193 21.2598 4.48918 21.2313C4.55083 20.8033 4.55083 20.3825 4.6016 19.926C4.61248 19.8368 1.1928 19.2519 1.17829 19.284ZM4.15918 21.1956C4.15918 21.1956 4.15193 21.1635 4.15193 21.1493C4.15918 21.1493 4.16281 21.1457 4.16643 21.1386C4.16643 21.1564 4.16281 21.1742 4.15918 21.1956Z" fill="#809BCF"/>
<path fill-rule="evenodd" clip-rule="evenodd" d="M3.53208 19.4478C3.35802 19.1768 3.69527 17.875 3.68802 17.8893C3.68439 17.8893 3.68077 17.8964 3.67714 17.9C3.41604 18.4207 3.28549 18.9949 3.04252 19.4978C3.03527 19.5156 3.96362 19.7795 4.47132 19.9899C4.50033 20.0042 3.6445 19.6226 3.53571 19.4478H3.53208Z" fill="#587DB3"/>
<mask id="mask0_208_163" style="mask-type:luminance" maskUnits="userSpaceOnUse" x="0" y="0" width="148" height="51">
<path d="M148 0H0V50.3443H148V0Z" fill="white"/>
</mask>
<g mask="url(#mask0_208_163)">
<path fill-rule="evenodd" clip-rule="evenodd" d="M13.2617 18.6096C12.9861 18.3885 12.8048 18.7059 12.8048 18.7059C12.8048 18.7059 12.6778 18.3849 12.3696 18.6025C12.2971 18.6524 12.2717 18.7202 12.2717 18.7844C12.2681 18.8842 12.3152 18.977 12.395 19.0305L12.7576 19.2801L13.1674 19.0376C13.2581 18.9841 13.3233 18.8914 13.3342 18.7915C13.3415 18.7273 13.327 18.6595 13.2617 18.6061V18.6096Z" fill="#F1F1F1"/>
<path fill-rule="evenodd" clip-rule="evenodd" d="M16.2388 21.7125H0.239199C0.0977695 21.7125 -0.0146484 21.602 -0.0146484 21.4629V21.4201C-0.0146484 21.281 0.0977695 21.1704 0.239199 21.1704H16.2388C16.3802 21.1704 16.4927 21.281 16.4927 21.4201V21.4629C16.4927 21.602 16.3802 21.7125 16.2388 21.7125Z" fill="#EF6754"/>
</g>
<path fill-rule="evenodd" clip-rule="evenodd" d="M11.8218 32.4086H0.10498V28.646H11.8218C13.2615 28.646 14.654 29.1382 15.7637 30.0405L16.3621 30.5291L15.7637 31.0141C14.654 31.9164 13.2579 32.4086 11.8218 32.4086Z" fill="#7AC943"/>
</svg>
