<svg width="14" height="14" viewBox="0 0 14 14" fill="none" xmlns="http://www.w3.org/2000/svg">
<path id="Vector" d="M5 0.125H1.25C0.918479 0.125 0.600537 0.256696 0.366116 0.491116C0.131696 0.725537 0 1.04348 0 1.375V5.125C0 5.45652 0.131696 5.77446 0.366116 6.00888C0.600537 6.2433 0.918479 6.375 1.25 6.375H5C5.33152 6.375 5.64946 6.2433 5.88388 6.00888C6.1183 5.77446 6.25 5.45652 6.25 5.125V1.375C6.25 1.04348 6.1183 0.725537 5.88388 0.491116C5.64946 0.256696 5.33152 0.125 5 0.125ZM5 5.125H1.25V1.375H5V5.125ZM12.5 0.125H8.75C8.41848 0.125 8.10054 0.256696 7.86612 0.491116C7.6317 0.725537 7.5 1.04348 7.5 1.375V5.125C7.5 5.45652 7.6317 5.77446 7.86612 6.00888C8.10054 6.2433 8.41848 6.375 8.75 6.375H12.5C12.8315 6.375 13.1495 6.2433 13.3839 6.00888C13.6183 5.77446 13.75 5.45652 13.75 5.125V1.375C13.75 1.04348 13.6183 0.725537 13.3839 0.491116C13.1495 0.256696 12.8315 0.125 12.5 0.125ZM12.5 5.125H8.75V1.375H12.5V5.125ZM5 7.625H1.25C0.918479 7.625 0.600537 7.7567 0.366116 7.99112C0.131696 8.22554 0 8.54348 0 8.875V12.625C0 12.9565 0.131696 13.2745 0.366116 13.5089C0.600537 13.7433 0.918479 13.875 1.25 13.875H5C5.33152 13.875 5.64946 13.7433 5.88388 13.5089C6.1183 13.2745 6.25 12.9565 6.25 12.625V8.875C6.25 8.54348 6.1183 8.22554 5.88388 7.99112C5.64946 7.7567 5.33152 7.625 5 7.625ZM5 12.625H1.25V8.875H5V12.625ZM12.5 7.625H8.75C8.41848 7.625 8.10054 7.7567 7.86612 7.99112C7.6317 8.22554 7.5 8.54348 7.5 8.875V12.625C7.5 12.9565 7.6317 13.2745 7.86612 13.5089C8.10054 13.7433 8.41848 13.875 8.75 13.875H12.5C12.8315 13.875 13.1495 13.7433 13.3839 13.5089C13.6183 13.2745 13.75 12.9565 13.75 12.625V8.875C13.75 8.54348 13.6183 8.22554 13.3839 7.99112C13.1495 7.7567 12.8315 7.625 12.5 7.625ZM12.5 12.625H8.75V8.875H12.5V12.625Z" fill="#2296F0"/>
</svg>
