<svg width="16" height="17" viewBox="0 0 16 17" fill="none" xmlns="http://www.w3.org/2000/svg">
<g id="user-check">
<path id="Vector" d="M10.667 14.875V13.5417C10.667 12.8344 10.386 12.1561 9.88594 11.656C9.38585 11.156 8.70757 10.875 8.00033 10.875H3.33366C2.62641 10.875 1.94814 11.156 1.44804 11.656C0.947944 12.1561 0.666992 12.8344 0.666992 13.5417V14.875" stroke="#87888A" stroke-width="1.3" stroke-linecap="round" stroke-linejoin="round"/>
<path id="Vector_2" d="M5.66667 8.20833C7.13943 8.20833 8.33333 7.01443 8.33333 5.54167C8.33333 4.06891 7.13943 2.875 5.66667 2.875C4.19391 2.875 3 4.06891 3 5.54167C3 7.01443 4.19391 8.20833 5.66667 8.20833Z" stroke="#87888A" stroke-width="1.3" stroke-linecap="round" stroke-linejoin="round"/>
<path id="Vector_3" d="M11.333 8.20833L12.6663 9.54167L15.333 6.875" stroke="#87888A" stroke-width="1.3" stroke-linecap="round" stroke-linejoin="round"/>
</g>
</svg>
