<svg width="16" height="16" viewBox="0 0 16 16" fill="none" xmlns="http://www.w3.org/2000/svg">
<path id="Vector" d="M7.8125 0C5.74119 0.00227469 3.75538 0.826105 2.29074 2.29074C0.826105 3.75538 0.00227469 5.74119 0 7.8125V14.375C0 14.7065 0.131696 15.0245 0.366116 15.2589C0.600537 15.4933 0.918479 15.625 1.25 15.625H7.8125C9.8845 15.625 11.8716 14.8019 13.3368 13.3368C14.8019 11.8716 15.625 9.8845 15.625 7.8125C15.625 5.7405 14.8019 3.75336 13.3368 2.28823C11.8716 0.8231 9.8845 0 7.8125 0ZM7.8125 14.375H1.25V7.8125C1.25 6.51456 1.63488 5.24577 2.35598 4.16657C3.07708 3.08737 4.102 2.24624 5.30114 1.74954C6.50028 1.25284 7.81978 1.12288 9.09278 1.3761C10.3658 1.62931 11.5351 2.25433 12.4529 3.17211C13.3707 4.08989 13.9957 5.25922 14.2489 6.53222C14.5021 7.80522 14.3722 9.12472 13.8755 10.3239C13.3788 11.523 12.5376 12.5479 11.4584 13.269C10.3792 13.9901 9.11044 14.375 7.8125 14.375ZM8.75 8.125C8.75 8.31042 8.69502 8.49168 8.592 8.64585C8.48899 8.80002 8.34257 8.92018 8.17126 8.99114C7.99996 9.06209 7.81146 9.08066 7.6296 9.04449C7.44775 9.00831 7.2807 8.91902 7.14959 8.78791C7.01848 8.6568 6.92919 8.48975 6.89301 8.3079C6.85684 8.12604 6.87541 7.93754 6.94636 7.76623C7.01732 7.59493 7.13748 7.44851 7.29165 7.3455C7.44582 7.24248 7.62708 7.1875 7.8125 7.1875C8.06114 7.1875 8.2996 7.28627 8.47541 7.46209C8.65123 7.6379 8.75 7.87636 8.75 8.125ZM5.3125 8.125C5.3125 8.31042 5.25752 8.49168 5.1545 8.64585C5.05149 8.80002 4.90507 8.92018 4.73377 8.99114C4.56246 9.06209 4.37396 9.08066 4.1921 9.04449C4.01025 9.00831 3.8432 8.91902 3.71209 8.78791C3.58098 8.6568 3.49169 8.48975 3.45551 8.3079C3.41934 8.12604 3.43791 7.93754 3.50886 7.76623C3.57982 7.59493 3.69998 7.44851 3.85415 7.3455C4.00832 7.24248 4.18958 7.1875 4.375 7.1875C4.62364 7.1875 4.8621 7.28627 5.03791 7.46209C5.21373 7.6379 5.3125 7.87636 5.3125 8.125ZM12.1875 8.125C12.1875 8.31042 12.1325 8.49168 12.0295 8.64585C11.9265 8.80002 11.7801 8.92018 11.6088 8.99114C11.4375 9.06209 11.249 9.08066 11.0671 9.04449C10.8852 9.00831 10.7182 8.91902 10.5871 8.78791C10.456 8.6568 10.3667 8.48975 10.3305 8.3079C10.2943 8.12604 10.3129 7.93754 10.3839 7.76623C10.4548 7.59493 10.575 7.44851 10.7292 7.3455C10.8833 7.24248 11.0646 7.1875 11.25 7.1875C11.4986 7.1875 11.7371 7.28627 11.9129 7.46209C12.0887 7.6379 12.1875 7.87636 12.1875 8.125Z" fill="#757D83"/>
</svg>
