<svg width="15" height="17" viewBox="0 0 15 17" fill="none" xmlns="http://www.w3.org/2000/svg">
<path id="Vector" d="M13.75 1.875H11.875V1.25C11.875 1.08424 11.8092 0.925268 11.6919 0.808058C11.5747 0.690848 11.4158 0.625 11.25 0.625C11.0842 0.625 10.9253 0.690848 10.8081 0.808058C10.6908 0.925268 10.625 1.08424 10.625 1.25V1.875H4.375V1.25C4.375 1.08424 4.30915 0.925268 4.19194 0.808058C4.07473 0.690848 3.91576 0.625 3.75 0.625C3.58424 0.625 3.42527 0.690848 3.30806 0.808058C3.19085 0.925268 3.125 1.08424 3.125 1.25V1.875H1.25C0.918479 1.875 0.600537 2.0067 0.366116 2.24112C0.131696 2.47554 0 2.79348 0 3.125V15.625C0 15.9565 0.131696 16.2745 0.366116 16.5089C0.600537 16.7433 0.918479 16.875 1.25 16.875H13.75C14.0815 16.875 14.3995 16.7433 14.6339 16.5089C14.8683 16.2745 15 15.9565 15 15.625V3.125C15 2.79348 14.8683 2.47554 14.6339 2.24112C14.3995 2.0067 14.0815 1.875 13.75 1.875ZM3.125 3.125V3.75C3.125 3.91576 3.19085 4.07473 3.30806 4.19194C3.42527 4.30915 3.58424 4.375 3.75 4.375C3.91576 4.375 4.07473 4.30915 4.19194 4.19194C4.30915 4.07473 4.375 3.91576 4.375 3.75V3.125H10.625V3.75C10.625 3.91576 10.6908 4.07473 10.8081 4.19194C10.9253 4.30915 11.0842 4.375 11.25 4.375C11.4158 4.375 11.5747 4.30915 11.6919 4.19194C11.8092 4.07473 11.875 3.91576 11.875 3.75V3.125H13.75V5.625H1.25V3.125H3.125ZM13.75 15.625H1.25V6.875H13.75V15.625ZM8.4375 9.6875C8.4375 9.87292 8.38252 10.0542 8.2795 10.2083C8.17649 10.3625 8.03007 10.4827 7.85877 10.5536C7.68746 10.6246 7.49896 10.6432 7.3171 10.607C7.13525 10.5708 6.9682 10.4815 6.83709 10.3504C6.70598 10.2193 6.61669 10.0523 6.58051 9.8704C6.54434 9.68854 6.56291 9.50004 6.63386 9.32873C6.70482 9.15743 6.82498 9.01101 6.97915 8.908C7.13332 8.80498 7.31458 8.75 7.5 8.75C7.74864 8.75 7.9871 8.84877 8.16291 9.02459C8.33873 9.2004 8.4375 9.43886 8.4375 9.6875ZM11.875 9.6875C11.875 9.87292 11.82 10.0542 11.717 10.2083C11.614 10.3625 11.4676 10.4827 11.2963 10.5536C11.125 10.6246 10.9365 10.6432 10.7546 10.607C10.5727 10.5708 10.4057 10.4815 10.2746 10.3504C10.1435 10.2193 10.0542 10.0523 10.018 9.8704C9.98184 9.68854 10.0004 9.50004 10.0714 9.32873C10.1423 9.15743 10.2625 9.01101 10.4167 8.908C10.5708 8.80498 10.7521 8.75 10.9375 8.75C11.1861 8.75 11.4246 8.84877 11.6004 9.02459C11.7762 9.2004 11.875 9.43886 11.875 9.6875ZM5 12.8125C5 12.9979 4.94502 13.1792 4.842 13.3333C4.73899 13.4875 4.59257 13.6077 4.42127 13.6786C4.24996 13.7496 4.06146 13.7682 3.8796 13.732C3.69775 13.6958 3.5307 13.6065 3.39959 13.4754C3.26848 13.3443 3.17919 13.1773 3.14301 12.9954C3.10684 12.8135 3.12541 12.625 3.19636 12.4537C3.26732 12.2824 3.38748 12.136 3.54165 12.033C3.69582 11.93 3.87708 11.875 4.0625 11.875C4.31114 11.875 4.5496 11.9738 4.72541 12.1496C4.90123 12.3254 5 12.5639 5 12.8125ZM8.4375 12.8125C8.4375 12.9979 8.38252 13.1792 8.2795 13.3333C8.17649 13.4875 8.03007 13.6077 7.85877 13.6786C7.68746 13.7496 7.49896 13.7682 7.3171 13.732C7.13525 13.6958 6.9682 13.6065 6.83709 13.4754C6.70598 13.3443 6.61669 13.1773 6.58051 12.9954C6.54434 12.8135 6.56291 12.625 6.63386 12.4537C6.70482 12.2824 6.82498 12.136 6.97915 12.033C7.13332 11.93 7.31458 11.875 7.5 11.875C7.74864 11.875 7.9871 11.9738 8.16291 12.1496C8.33873 12.3254 8.4375 12.5639 8.4375 12.8125ZM11.875 12.8125C11.875 12.9979 11.82 13.1792 11.717 13.3333C11.614 13.4875 11.4676 13.6077 11.2963 13.6786C11.125 13.7496 10.9365 13.7682 10.7546 13.732C10.5727 13.6958 10.4057 13.6065 10.2746 13.4754C10.1435 13.3443 10.0542 13.1773 10.018 12.9954C9.98184 12.8135 10.0004 12.625 10.0714 12.4537C10.1423 12.2824 10.2625 12.136 10.4167 12.033C10.5708 11.93 10.7521 11.875 10.9375 11.875C11.1861 11.875 11.4246 11.9738 11.6004 12.1496C11.7762 12.3254 11.875 12.5639 11.875 12.8125Z" fill="#87888A"/>
</svg>
