<svg width="16" height="17" viewBox="0 0 16 17" fill="none" xmlns="http://www.w3.org/2000/svg">
<g id="settings" clip-path="url(#clip0_5_175)">
<path id="Vector" d="M8 10.875C9.10457 10.875 10 9.97957 10 8.875C10 7.77043 9.10457 6.875 8 6.875C6.89543 6.875 6 7.77043 6 8.875C6 9.97957 6.89543 10.875 8 10.875Z" stroke="#87888A" stroke-width="1.3" stroke-linecap="round" stroke-linejoin="round"/>
<path id="Vector_2" d="M12.9337 10.8748C12.8449 11.0759 12.8184 11.299 12.8577 11.5152C12.8969 11.7315 13 11.9311 13.1537 12.0882L13.1937 12.1282C13.3176 12.252 13.416 12.3991 13.4831 12.5609C13.5502 12.7228 13.5847 12.8963 13.5847 13.0715C13.5847 13.2467 13.5502 13.4202 13.4831 13.5821C13.416 13.744 13.3176 13.891 13.1937 14.0148C13.0698 14.1388 12.9228 14.2372 12.7609 14.3043C12.599 14.3713 12.4255 14.4059 12.2503 14.4059C12.0751 14.4059 11.9016 14.3713 11.7397 14.3043C11.5779 14.2372 11.4308 14.1388 11.307 14.0148L11.267 13.9748C11.1099 13.8211 10.9103 13.718 10.6941 13.6788C10.4778 13.6396 10.2547 13.6661 10.0537 13.7548C9.85648 13.8393 9.68831 13.9797 9.56986 14.1585C9.45141 14.3374 9.38785 14.547 9.38699 14.7615V14.8748C9.38699 15.2285 9.24652 15.5676 8.99647 15.8176C8.74642 16.0677 8.40728 16.2082 8.05366 16.2082C7.70004 16.2082 7.3609 16.0677 7.11085 15.8176C6.8608 15.5676 6.72033 15.2285 6.72033 14.8748V14.8148C6.71516 14.5942 6.64374 14.3802 6.51533 14.2006C6.38693 14.0211 6.20748 13.8844 6.00033 13.8082C5.79925 13.7194 5.5762 13.693 5.35993 13.7322C5.14367 13.7714 4.94411 13.8745 4.78699 14.0282L4.74699 14.0682C4.62316 14.1921 4.47611 14.2905 4.31425 14.3576C4.15238 14.4247 3.97888 14.4592 3.80366 14.4592C3.62844 14.4592 3.45494 14.4247 3.29307 14.3576C3.13121 14.2905 2.98416 14.1921 2.86033 14.0682C2.73636 13.9443 2.63801 13.7973 2.57091 13.6354C2.50381 13.4736 2.46928 13.3001 2.46928 13.1248C2.46928 12.9496 2.50381 12.7761 2.57091 12.6143C2.63801 12.4524 2.73636 12.3053 2.86033 12.1815L2.90033 12.1415C3.05402 11.9844 3.15712 11.7848 3.19633 11.5686C3.23554 11.3523 3.20907 11.1292 3.12033 10.9282C3.03582 10.731 2.8955 10.5628 2.71664 10.4444C2.53778 10.3259 2.32818 10.2624 2.11366 10.2615H2.00033C1.6467 10.2615 1.30757 10.121 1.05752 9.87098C0.807468 9.62093 0.666992 9.28179 0.666992 8.92817C0.666992 8.57455 0.807468 8.23541 1.05752 7.98536C1.30757 7.73531 1.6467 7.59484 2.00033 7.59484H2.06033C2.28099 7.58968 2.495 7.51825 2.67453 7.38984C2.85405 7.26144 2.9908 7.08199 3.06699 6.87484C3.15574 6.67376 3.18221 6.45071 3.143 6.23445C3.10378 6.01818 3.00068 5.81862 2.84699 5.6615L2.80699 5.6215C2.68302 5.49767 2.58468 5.35062 2.51758 5.18876C2.45048 5.02689 2.41594 4.85339 2.41594 4.67817C2.41594 4.50295 2.45048 4.32945 2.51758 4.16758C2.58468 4.00572 2.68302 3.85867 2.80699 3.73484C2.93082 3.61087 3.07787 3.51252 3.23974 3.44542C3.4016 3.37833 3.5751 3.34379 3.75033 3.34379C3.92555 3.34379 4.09905 3.37833 4.26091 3.44542C4.42278 3.51252 4.56983 3.61087 4.69366 3.73484L4.73366 3.77484C4.89078 3.92853 5.09034 4.03163 5.3066 4.07084C5.52286 4.11005 5.74592 4.08358 5.94699 3.99484H6.00033C6.19751 3.91033 6.36567 3.77001 6.48412 3.59115C6.60257 3.41229 6.66614 3.2027 6.66699 2.98817V2.87484C6.66699 2.52122 6.80747 2.18208 7.05752 1.93203C7.30757 1.68198 7.6467 1.5415 8.00033 1.5415C8.35395 1.5415 8.69309 1.68198 8.94313 1.93203C9.19318 2.18208 9.33366 2.52122 9.33366 2.87484V2.93484C9.33451 3.14936 9.39808 3.35895 9.51653 3.53781C9.63498 3.71667 9.80315 3.857 10.0003 3.9415C10.2014 4.03025 10.4245 4.05672 10.6407 4.01751C10.857 3.97829 11.0565 3.8752 11.2137 3.7215L11.2537 3.6815C11.3775 3.55754 11.5245 3.45919 11.6864 3.39209C11.8483 3.32499 12.0218 3.29046 12.197 3.29046C12.3722 3.29046 12.5457 3.32499 12.7076 3.39209C12.8694 3.45919 13.0165 3.55754 13.1403 3.6815C13.2643 3.80533 13.3626 3.95239 13.4297 4.11425C13.4968 4.27611 13.5314 4.44962 13.5314 4.62484C13.5314 4.80006 13.4968 4.97356 13.4297 5.13542C13.3626 5.29729 13.2643 5.44434 13.1403 5.56817L13.1003 5.60817C12.9466 5.76529 12.8435 5.96485 12.8043 6.18111C12.7651 6.39737 12.7916 6.62043 12.8803 6.8215V6.87484C12.9648 7.07202 13.1052 7.24018 13.284 7.35863C13.4629 7.47708 13.6725 7.54065 13.887 7.5415H14.0003C14.3539 7.5415 14.6931 7.68198 14.9431 7.93203C15.1932 8.18208 15.3337 8.52122 15.3337 8.87484C15.3337 9.22846 15.1932 9.5676 14.9431 9.81765C14.6931 10.0677 14.3539 10.2082 14.0003 10.2082H13.9403C13.7258 10.209 13.5162 10.2726 13.3373 10.391C13.1585 10.5095 13.0182 10.6777 12.9337 10.8748Z" stroke="#87888A" stroke-width="1.3" stroke-linecap="round" stroke-linejoin="round"/>
</g>
<defs>
<clipPath id="clip0_5_175">
<rect width="16" height="16" fill="white" transform="translate(0 0.875)"/>
</clipPath>
</defs>
</svg>
