<svg width="16" height="17" viewBox="0 0 16 17" fill="none" xmlns="http://www.w3.org/2000/svg">
<g id="users">
<path id="Vector" d="M11.3337 14.875V13.5417C11.3337 12.8344 11.0527 12.1561 10.5526 11.656C10.0525 11.156 9.37424 10.875 8.66699 10.875H3.33366C2.62641 10.875 1.94814 11.156 1.44804 11.656C0.947944 12.1561 0.666992 12.8344 0.666992 13.5417V14.875" stroke="#87888A" stroke-width="1.3" stroke-linecap="round" stroke-linejoin="round"/>
<path id="Vector_2" d="M5.99967 8.20833C7.47243 8.20833 8.66634 7.01443 8.66634 5.54167C8.66634 4.06891 7.47243 2.875 5.99967 2.875C4.52692 2.875 3.33301 4.06891 3.33301 5.54167C3.33301 7.01443 4.52692 8.20833 5.99967 8.20833Z" stroke="#87888A" stroke-width="1.3" stroke-linecap="round" stroke-linejoin="round"/>
<path id="Vector_3" d="M15.333 14.8748V13.5414C15.3326 12.9506 15.1359 12.3766 14.7739 11.9096C14.4119 11.4427 13.9051 11.1091 13.333 10.9614" stroke="#87888A" stroke-width="1.3" stroke-linecap="round" stroke-linejoin="round"/>
<path id="Vector_4" d="M10.667 2.96143C11.2406 3.10829 11.749 3.44189 12.1121 3.90963C12.4752 4.37737 12.6722 4.95265 12.6722 5.54476C12.6722 6.13687 12.4752 6.71215 12.1121 7.17988C11.749 7.64762 11.2406 7.98122 10.667 8.12809" stroke="#87888A" stroke-width="1.3" stroke-linecap="round" stroke-linejoin="round"/>
</g>
</svg>
